<?xml version="1.0" encoding="UTF-8" standalone="no"?>
<!DOCTYPE svg PUBLIC "-//W3C//DTD SVG 1.1//EN"
 "http://www.w3.org/Graphics/SVG/1.1/DTD/svg11.dtd">
<!-- Generated by graphviz version 8.0.5 (20230430.1635)
 -->
<!-- Pages: 1 -->
<svg width="1165pt" height="404pt"
 viewBox="0.00 0.00 1164.58 404.00" xmlns="http://www.w3.org/2000/svg" xmlns:xlink="http://www.w3.org/1999/xlink">
<g id="graph0" class="graph" transform="scale(1 1) rotate(0) translate(4 400)">
<polygon fill="white" stroke="none" points="-4,4 -4,-400 1160.58,-400 1160.58,4 -4,4"/>
<!-- [root] azurerm_resource_group.twrg (expand) -->
<g id="node1" class="node">
<title>[root] azurerm_resource_group.twrg (expand)</title>
<polygon fill="none" stroke="black" points="806.3,-108 621.55,-108 621.55,-72 806.3,-72 806.3,-108"/>
<text text-anchor="middle" x="713.92" y="-84.58" font-family="Times New Roman,serif" font-size="14.00">azurerm_resource_group.twrg</text>
</g>
<!-- [root] provider[&quot;registry.terraform.io/hashicorp/azurerm&quot;] -->
<g id="node4" class="node">
<title>[root] provider[&quot;registry.terraform.io/hashicorp/azurerm&quot;]</title>
<polygon fill="none" stroke="black" points="283.92,-36 0,-18 283.92,0 567.84,-18 283.92,-36"/>
<text text-anchor="middle" x="283.92" y="-12.58" font-family="Times New Roman,serif" font-size="14.00">provider[&quot;registry.terraform.io/hashicorp/azurerm&quot;]</text>
</g>
<!-- [root] azurerm_resource_group.twrg (expand)&#45;&gt;[root] provider[&quot;registry.terraform.io/hashicorp/azurerm&quot;] -->
<g id="edge2" class="edge">
<title>[root] azurerm_resource_group.twrg (expand)&#45;&gt;[root] provider[&quot;registry.terraform.io/hashicorp/azurerm&quot;]</title>
<path fill="none" stroke="black" d="M621.15,-73.9C547.14,-61.85 444.2,-45.09 371.57,-33.27"/>
<polygon fill="black" stroke="black" points="372.52,-29.71 362.08,-31.56 371.39,-36.62 372.52,-29.71"/>
</g>
<!-- [root] var.azure_location -->
<g id="node5" class="node">
<title>[root] var.azure_location</title>
<polygon fill="none" stroke="black" points="697.92,-36 585.92,-36 585.92,0 703.92,0 703.92,-30 697.92,-36"/>
<polyline fill="none" stroke="black" points="697.92,-36 697.92,-30"/>
<polyline fill="none" stroke="black" points="703.92,-30 697.92,-30"/>
<text text-anchor="middle" x="644.92" y="-12.58" font-family="Times New Roman,serif" font-size="14.00">var.azure_location</text>
</g>
<!-- [root] azurerm_resource_group.twrg (expand)&#45;&gt;[root] var.azure_location -->
<g id="edge3" class="edge">
<title>[root] azurerm_resource_group.twrg (expand)&#45;&gt;[root] var.azure_location</title>
<path fill="none" stroke="black" d="M696.86,-71.7C688.59,-63.3 678.5,-53.07 669.43,-43.86"/>
<polygon fill="black" stroke="black" points="672.29,-41.77 662.78,-37.1 667.31,-46.68 672.29,-41.77"/>
</g>
<!-- [root] var.azure_rg_name -->
<g id="node6" class="node">
<title>[root] var.azure_rg_name</title>
<polygon fill="none" stroke="black" points="837.8,-36 722.05,-36 722.05,0 843.8,0 843.8,-30 837.8,-36"/>
<polyline fill="none" stroke="black" points="837.8,-36 837.8,-30"/>
<polyline fill="none" stroke="black" points="843.8,-30 837.8,-30"/>
<text text-anchor="middle" x="782.92" y="-12.58" font-family="Times New Roman,serif" font-size="14.00">var.azure_rg_name</text>
</g>
<!-- [root] azurerm_resource_group.twrg (expand)&#45;&gt;[root] var.azure_rg_name -->
<g id="edge4" class="edge">
<title>[root] azurerm_resource_group.twrg (expand)&#45;&gt;[root] var.azure_rg_name</title>
<path fill="none" stroke="black" d="M730.98,-71.7C739.25,-63.3 749.34,-53.07 758.42,-43.86"/>
<polygon fill="black" stroke="black" points="760.53,-46.68 765.06,-37.1 755.55,-41.77 760.53,-46.68"/>
</g>
<!-- [root] local.tags (expand) -->
<g id="node9" class="node">
<title>[root] local.tags (expand)</title>
<ellipse fill="none" stroke="black" cx="966.92" cy="-18" rx="104.96" ry="18"/>
<text text-anchor="middle" x="966.92" y="-12.58" font-family="Times New Roman,serif" font-size="14.00">[root] local.tags (expand)</text>
</g>
<!-- [root] azurerm_resource_group.twrg (expand)&#45;&gt;[root] local.tags (expand) -->
<g id="edge1" class="edge">
<title>[root] azurerm_resource_group.twrg (expand)&#45;&gt;[root] local.tags (expand)</title>
<path fill="none" stroke="black" d="M777.11,-71.52C815.37,-60.93 864.05,-47.46 902.52,-36.82"/>
<polygon fill="black" stroke="black" points="903.39,-39.93 912.09,-33.89 901.52,-33.19 903.39,-39.93"/>
</g>
<!-- [root] azurerm_subnet.twsubnet (expand) -->
<g id="node2" class="node">
<title>[root] azurerm_subnet.twsubnet (expand)</title>
<polygon fill="none" stroke="black" points="983.17,-252 824.67,-252 824.67,-216 983.17,-216 983.17,-252"/>
<text text-anchor="middle" x="903.92" y="-228.57" font-family="Times New Roman,serif" font-size="14.00">azurerm_subnet.twsubnet</text>
</g>
<!-- [root] azurerm_virtual_network.twvnet (expand) -->
<g id="node3" class="node">
<title>[root] azurerm_virtual_network.twvnet (expand)</title>
<polygon fill="none" stroke="black" points="906.17,-180 711.67,-180 711.67,-144 906.17,-144 906.17,-180"/>
<text text-anchor="middle" x="808.92" y="-156.57" font-family="Times New Roman,serif" font-size="14.00">azurerm_virtual_network.twvnet</text>
</g>
<!-- [root] azurerm_subnet.twsubnet (expand)&#45;&gt;[root] azurerm_virtual_network.twvnet (expand) -->
<g id="edge5" class="edge">
<title>[root] azurerm_subnet.twsubnet (expand)&#45;&gt;[root] azurerm_virtual_network.twvnet (expand)</title>
<path fill="none" stroke="black" d="M880.44,-215.7C868.56,-206.95 853.97,-196.19 841.07,-186.69"/>
<polygon fill="black" stroke="black" points="843.59,-183.46 833.46,-180.35 839.44,-189.1 843.59,-183.46"/>
</g>
<!-- [root] var.virtual_subnet_name -->
<g id="node8" class="node">
<title>[root] var.virtual_subnet_name</title>
<polygon fill="none" stroke="black" points="1069.8,-180 924.05,-180 924.05,-144 1075.8,-144 1075.8,-174 1069.8,-180"/>
<polyline fill="none" stroke="black" points="1069.8,-180 1069.8,-174"/>
<polyline fill="none" stroke="black" points="1075.8,-174 1069.8,-174"/>
<text text-anchor="middle" x="999.92" y="-156.57" font-family="Times New Roman,serif" font-size="14.00">var.virtual_subnet_name</text>
</g>
<!-- [root] azurerm_subnet.twsubnet (expand)&#45;&gt;[root] var.virtual_subnet_name -->
<g id="edge6" class="edge">
<title>[root] azurerm_subnet.twsubnet (expand)&#45;&gt;[root] var.virtual_subnet_name</title>
<path fill="none" stroke="black" d="M927.65,-215.7C939.65,-206.95 954.4,-196.19 967.43,-186.69"/>
<polygon fill="black" stroke="black" points="969.11,-189.07 975.13,-180.35 964.99,-183.41 969.11,-189.07"/>
</g>
<!-- [root] azurerm_virtual_network.twvnet (expand)&#45;&gt;[root] azurerm_resource_group.twrg (expand) -->
<g id="edge7" class="edge">
<title>[root] azurerm_virtual_network.twvnet (expand)&#45;&gt;[root] azurerm_resource_group.twrg (expand)</title>
<path fill="none" stroke="black" d="M785.44,-143.7C773.56,-134.95 758.97,-124.19 746.07,-114.69"/>
<polygon fill="black" stroke="black" points="748.59,-111.46 738.46,-108.35 744.44,-117.1 748.59,-111.46"/>
</g>
<!-- [root] var.virtual_network_name -->
<g id="node7" class="node">
<title>[root] var.virtual_network_name</title>
<polygon fill="none" stroke="black" points="977.92,-108 823.92,-108 823.92,-72 983.92,-72 983.92,-102 977.92,-108"/>
<polyline fill="none" stroke="black" points="977.92,-108 977.92,-102"/>
<polyline fill="none" stroke="black" points="983.92,-102 977.92,-102"/>
<text text-anchor="middle" x="903.92" y="-84.58" font-family="Times New Roman,serif" font-size="14.00">var.virtual_network_name</text>
</g>
<!-- [root] azurerm_virtual_network.twvnet (expand)&#45;&gt;[root] var.virtual_network_name -->
<g id="edge8" class="edge">
<title>[root] azurerm_virtual_network.twvnet (expand)&#45;&gt;[root] var.virtual_network_name</title>
<path fill="none" stroke="black" d="M832.4,-143.7C844.28,-134.95 858.87,-124.19 871.77,-114.69"/>
<polygon fill="black" stroke="black" points="873.4,-117.1 879.38,-108.35 869.25,-111.46 873.4,-117.1"/>
</g>
<!-- [root] provider[&quot;registry.terraform.io/hashicorp/azurerm&quot;] (close) -->
<g id="node10" class="node">
<title>[root] provider[&quot;registry.terraform.io/hashicorp/azurerm&quot;] (close)</title>
<ellipse fill="none" stroke="black" cx="903.92" cy="-306" rx="252.66" ry="18"/>
<text text-anchor="middle" x="903.92" y="-300.57" font-family="Times New Roman,serif" font-size="14.00">[root] provider[&quot;registry.terraform.io/hashicorp/azurerm&quot;] (close)</text>
</g>
<!-- [root] provider[&quot;registry.terraform.io/hashicorp/azurerm&quot;] (close)&#45;&gt;[root] azurerm_subnet.twsubnet (expand) -->
<g id="edge9" class="edge">
<title>[root] provider[&quot;registry.terraform.io/hashicorp/azurerm&quot;] (close)&#45;&gt;[root] azurerm_subnet.twsubnet (expand)</title>
<path fill="none" stroke="black" d="M903.92,-287.7C903.92,-280.24 903.92,-271.32 903.92,-262.97"/>
<polygon fill="black" stroke="black" points="907.42,-263.1 903.92,-253.1 900.42,-263.1 907.42,-263.1"/>
</g>
<!-- [root] root -->
<g id="node11" class="node">
<title>[root] root</title>
<ellipse fill="none" stroke="black" cx="903.92" cy="-378" rx="50.07" ry="18"/>
<text text-anchor="middle" x="903.92" y="-372.57" font-family="Times New Roman,serif" font-size="14.00">[root] root</text>
</g>
<!-- [root] root&#45;&gt;[root] provider[&quot;registry.terraform.io/hashicorp/azurerm&quot;] (close) -->
<g id="edge10" class="edge">
<title>[root] root&#45;&gt;[root] provider[&quot;registry.terraform.io/hashicorp/azurerm&quot;] (close)</title>
<path fill="none" stroke="black" d="M903.92,-359.7C903.92,-352.24 903.92,-343.32 903.92,-334.97"/>
<polygon fill="black" stroke="black" points="907.42,-335.1 903.92,-325.1 900.42,-335.1 907.42,-335.1"/>
</g>
</g>
</svg>
